# xmcd
#
# Track frame offsets:
# 225
# 19856
# 42784
# 58388
# 77359
# 93321
# 108171
# 127395
# 137030
# 162523
# 185060
# 200290
# 221678
# 234526
# 252624
#
# Disc length: 3647 seconds
#
#
# Revision: 0
# Processed by: cddbd v1.4PL0 Copyright (c) Steve Scherf et al.
# Submitted via: FreeRIP 2.40 
#
DISCID=dd0e3c0f
DTITLE=Various Blues - Going Down South
DYEAR=1998
DGENRE=Blues
TTITLE0=Going Down South (RL Burnside)
TTITLE1=Miss Maybelle (Ranie Burnette)
TTITLE2=So Many Cold Mornings (Johnny Woods)
TTITLE3=Going Away Blues (RL Burnside)
TTITLE4=Can't Be Satisfied (RL Burnside)
TTITLE5=One String Baby (Ranie Burnete)
TTITLE6=Hungry Spell (Ranie Burnette)
TTITLE7=Going Up the Country (Johnny Woods)
TTITLE8=My Jack Don't Drink No Water (Johnny Woods)
TTITLE9=Stack O'Lee and Billy Lyons (RL Burnside)
TTITLE10=Walking Blues (RL Burnside)
TTITLE11=Coal Black Matte (Ranie Burnette)
TTITLE12=She's Loving Another Man (Johnny Woods)
TTITLE13=Lonseome Moon Blues (Ranie Burnette)
TTITLE14=Suzanna Blues (Johnny Woods)
EXTD=
EXTT0=
EXTT1=
EXTT2=
EXTT3=
EXTT4=
EXTT5=
EXTT6=
EXTT7=
EXTT8=
EXTT9=
EXTT10=
EXTT11=
EXTT12=
EXTT13=
EXTT14=
PLAYORDER=
